<?xml version="1.0" encoding="UTF-8" standalone="no"?>
<svg
   xmlns:dc="http://purl.org/dc/elements/1.1/"
   xmlns:cc="http://creativecommons.org/ns#"
   xmlns:rdf="http://www.w3.org/1999/02/22-rdf-syntax-ns#"
   xmlns:svg="http://www.w3.org/2000/svg"
   xmlns="http://www.w3.org/2000/svg"
   xmlns:sodipodi="http://sodipodi.sourceforge.net/DTD/sodipodi-0.dtd"
   xmlns:inkscape="http://www.inkscape.org/namespaces/inkscape"
   version="1.1"
   x="0px"
   y="0px"
   viewBox="0 0 60 60"
   xml:space="preserve"
   id="svg2"
   inkscape:version="0.91 r13725"
   sodipodi:docname="noun_feedback_1016552.svg"
   width="60"
   height="60"><metadata
     id="metadata28"><rdf:RDF><cc:Work
         rdf:about=""><dc:format>image/svg+xml</dc:format><dc:type
           rdf:resource="http://purl.org/dc/dcmitype/StillImage" /><dc:title></dc:title></cc:Work></rdf:RDF></metadata><defs
     id="defs26" /><sodipodi:namedview
     pagecolor="#ffffff"
     bordercolor="#666666"
     borderopacity="1"
     objecttolerance="10"
     gridtolerance="10"
     guidetolerance="10"
     inkscape:pageopacity="0"
     inkscape:pageshadow="2"
     inkscape:window-width="1920"
     inkscape:window-height="1056"
     id="namedview24"
     showgrid="false"
     fit-margin-top="0"
     fit-margin-left="0"
     fit-margin-right="0"
     fit-margin-bottom="0"
     inkscape:zoom="2.95"
     inkscape:cx="30"
     inkscape:cy="22"
     inkscape:window-x="0"
     inkscape:window-y="24"
     inkscape:window-maximized="1"
     inkscape:current-layer="svg2" /><path
     d="M 53,0 7.783,0 C 3.491,0 0,3.141 0,7 l 0,46 c 0,0.553 0.448,1 1,1 l 33,0 0,1 c 0,2.757 2.243,5 5,5 l 16,0 c 2.757,0 5,-2.243 5,-5 l 0,-10 c 0,-2.757 -2.243,-5 -5,-5 l -7,0 0,-14 11,0 c 0.552,0 1,-0.447 1,-1 L 60,7 C 60,3.141 56.86,0 53,0 Z m 5,45 0,10 c 0,1.654 -1.346,3 -3,3 l -16,0 c -1.654,0 -3,-1.346 -3,-3 l 0,-2 0,-6.444 c 0,-0.305 -0.139,-0.594 -0.378,-0.783 L 30.869,42 47,42 l 8,0 c 1.654,0 3,1.346 3,3 z M 28,40 c -0.425,0 -0.804,0.27 -0.944,0.671 -0.14,0.401 -0.011,0.848 0.323,1.112 L 34,47.039 34,52 2,52 2,7 C 2,4.243 4.594,2 7.783,2 L 48.106,2 C 48.096,2.009 48.088,2.02 48.079,2.029 48,2.107 47.928,2.191 47.853,2.273 47.775,2.357 47.695,2.439 47.622,2.528 47.55,2.615 47.485,2.707 47.416,2.798 47.348,2.888 47.277,2.975 47.214,3.068 47.148,3.164 47.091,3.266 47.03,3.366 46.973,3.46 46.912,3.551 46.859,3.647 46.802,3.751 46.753,3.861 46.701,3.969 46.654,4.067 46.602,4.162 46.56,4.262 c -0.048,0.113 -0.087,0.231 -0.129,0.347 -0.036,0.1 -0.078,0.197 -0.11,0.299 -0.04,0.128 -0.069,0.26 -0.102,0.39 C 46.195,5.393 46.166,5.485 46.146,5.582 46.114,5.735 46.095,5.893 46.073,6.05 46.062,6.127 46.046,6.203 46.038,6.281 46.013,6.517 46,6.757 46,7 l 0,18 0,15 -18,0 z M 58,24 48,24 48,7 c 0,-2.757 2.243,-5 5,-5 2.757,0 5,2.243 5,5 l 0,17 z"
     id="path4"
     inkscape:connector-curvature="0"
     style="fill:#ffffff" /><rect
     x="6"
     y="6"
     width="36"
     height="2"
     id="rect6"
     style="fill:#ffffff" /><rect
     x="6"
     y="12"
     width="36"
     height="2"
     id="rect8"
     style="fill:#ffffff" /><rect
     x="6"
     y="18"
     width="36"
     height="2"
     id="rect10"
     style="fill:#ffffff" /><rect
     x="6"
     y="24"
     width="36"
     height="2"
     id="rect12"
     style="fill:#ffffff" /><rect
     x="6"
     y="30"
     width="36"
     height="2"
     id="rect14"
     style="fill:#ffffff" /><rect
     x="6"
     y="36"
     width="36"
     height="2"
     id="rect16"
     style="fill:#ffffff" /><path
     d="m 44,44 c -2.663,0 -4,2.564 -4,4 0,4.565 6.285,7.761 6.553,7.895 C 46.693,55.965 46.847,56 47,56 47.153,56 47.307,55.965 47.447,55.895 47.715,55.761 54,52.565 54,48 54,46.564 52.663,44 50,44 49.049,44 47.84,44.891 47,45.629 46.16,44.891 44.951,44 44,44 Z m 6,2 c 1.398,0 2,1.518 2,2 0,2.523 -3.277,4.894 -5.001,5.866 C 45.275,52.896 42,50.532 42,48 c 0,-0.482 0.602,-2 1.983,-2.001 0.359,0.046 1.46,0.86 2.311,1.708 0.39,0.391 1.023,0.391 1.413,0 C 48.557,46.859 49.658,46.045 50,46 Z"
     id="path18"
     inkscape:connector-curvature="0"
     style="fill:#ffffff" /><text
     x="-2"
     y="82"
     font-size="5px"
     font-weight="bold"
     id="text22"
     style="font-weight:bold;font-size:5px;font-family:'Helvetica Neue', Helvetica, Arial-Unicode, Arial, Sans-serif;fill:#ffffff;" />
<flowRoot
     xml:space="preserve"
     id="flowRoot4156"
     style="font-style:normal;font-weight:normal;font-size:40px;line-height:125%;font-family:sans-serif;letter-spacing:0px;word-spacing:0px;fill:#ffffff;fill-opacity:1;stroke:none;stroke-width:1px;stroke-linecap:butt;stroke-linejoin:miter;stroke-opacity:1;"
     transform="translate(-2,-2)"><flowRegion
       id="flowRegion4158"><rect
         id="rect4160"
         width="169.15254"
         height="47.796612"
         x="-21.355932"
         y="67.457626"
         style="fill:#ffffff;" /></flowRegion><flowPara
       id="flowPara4162"></flowPara></flowRoot></svg>